<?xml version="1.0" encoding="utf-8"?>
<!-- Generator: Adobe Illustrator 17.0.2, SVG Export Plug-In . SVG Version: 6.00 Build 0)  -->
<!DOCTYPE svg PUBLIC "-//W3C//DTD SVG 1.1//EN" "http://www.w3.org/Graphics/SVG/1.1/DTD/svg11.dtd">
<svg version="1.1" id="Layer_1" xmlns="http://www.w3.org/2000/svg" xmlns:xlink="http://www.w3.org/1999/xlink" x="0px" y="0px"
	 width="800px" height="400px" viewBox="0 0 800 400" enable-background="new 0 0 800 400" xml:space="preserve">
<path fill="#999999" d="M800,400H500c0-54.48-43.56-98.78-97.75-99.97L409.01,0.1C625.76,4.89,800,182.1,800,400z"/>
<path fill="#D1E8B2" d="M409.01,0.1l-6.76,299.93c-0.75-0.02-1.5-0.03-2.25-0.03c-9.98,0-19.62,1.46-28.71,4.19L285.18,16.83
	l-0.03-0.1C321.53,5.85,360.08,0,400,0C403.01,0,406.02,0.03,409.01,0.1z"/>
<path fill="#F8A4A7" d="M285.18,16.83l86.11,287.36c-31.26,9.34-56.09,33.57-66.27,64.46L20.15,274.64l-0.09-0.03
	C60.8,151.07,160.13,54.15,285.15,16.73L285.18,16.83z"/>
<path fill="#D4A9D2" d="M20.15,274.64l284.87,94.01c-3.26,9.86-5.02,20.4-5.02,31.35H0c0-43.8,7.04-85.95,20.06-125.39L20.15,274.64
	z"/>
</svg>
